<mxfile host="Electron" modified="2024-02-27T08:03:52.106Z" agent="Mozilla/5.0 (Windows NT 10.0; Win64; x64) AppleWebKit/537.36 (KHTML, like Gecko) draw.io/23.1.5 Chrome/120.0.6099.109 Electron/28.1.0 Safari/537.36" etag="xGt05UkxzjgT9s9YUYCq" version="23.1.5" type="device">
  <diagram name="Page-1" id="0MC-4Dckpnw91j6d6mKn">
    <mxGraphModel dx="1674" dy="836" grid="1" gridSize="10" guides="1" tooltips="1" connect="1" arrows="1" fold="1" page="1" pageScale="1" pageWidth="850" pageHeight="1100" math="0" shadow="0">
      <root>
        <mxCell id="0" />
        <mxCell id="1" parent="0" />
        <mxCell id="OOSFDkqaMUAi02Isikei-1" value="&lt;div style=&quot;border-color: rgb(0, 0, 0); text-align: justify;&quot;&gt;&amp;nbsp;BEGIN PROGRAM&lt;/div&gt;&lt;div style=&quot;border-color: rgb(0, 0, 0); text-align: justify;&quot;&gt;At AccountRepository&lt;/div&gt;&lt;div style=&quot;border-color: rgb(0, 0, 0); text-align: justify;&quot;&gt;&amp;nbsp; &amp;nbsp; &amp;nbsp; &amp;nbsp; &amp;nbsp;Extend interface JpaRepository&lt;/div&gt;&lt;div style=&quot;border-color: rgb(0, 0, 0); text-align: justify;&quot;&gt;&amp;nbsp; &amp;nbsp; &amp;nbsp; &amp;nbsp; &amp;nbsp;Call method saveAccount(account) that has an account parameter of data type Account&lt;/div&gt;&lt;div style=&quot;border-color: rgb(0, 0, 0); text-align: justify;&quot;&gt;&amp;nbsp; &amp;nbsp; &amp;nbsp; &amp;nbsp; &amp;nbsp; Get database connection&amp;nbsp; &amp;nbsp;&lt;/div&gt;&lt;div style=&quot;border-color: rgb(0, 0, 0); text-align: justify;&quot;&gt;&lt;div&gt;INSERT INTO Account ( Account_Name, Full_Name, Phone_Number, Address, Gender, Password, Role_Id, Facebook_Id, Google_Id, Number_Id, Profilepic, Birthday, Email, Member_Code, Point, isDelete)&lt;/div&gt;&lt;div&gt;VALUES ( &#39;account_name&#39;, &#39;full_name&#39;, &#39;phone_number&#39;, &#39;address&#39;, &#39;gender&#39;, &#39;password&#39;, &#39;role_id&#39;, &#39;facebook_id&#39;, &#39;google_id&#39;, &#39;number_id&#39;, &#39;profilepic&#39;, &#39;birthday&#39;, &#39;email&#39;, &#39;member_code&#39;, &#39;0&#39;, 0);&lt;/div&gt;&lt;/div&gt;&lt;div style=&quot;border-color: rgb(0, 0, 0); text-align: justify;&quot;&gt;&amp;nbsp; &amp;nbsp; &amp;nbsp; &amp;nbsp; &amp;nbsp; Execute SQL&lt;/div&gt;&lt;div style=&quot;border-color: rgb(0, 0, 0); text-align: justify;&quot;&gt;&amp;nbsp; &amp;nbsp; &amp;nbsp; &amp;nbsp; &amp;nbsp; Close database connection&lt;/div&gt;&lt;div style=&quot;border-color: rgb(0, 0, 0); text-align: justify;&quot;&gt;At IAccountService&amp;nbsp;&lt;/div&gt;&lt;div style=&quot;border-color: rgb(0, 0, 0); text-align: justify;&quot;&gt;&amp;nbsp; &amp;nbsp; Declare method save(account) that has an account parameter of data type Account&lt;/div&gt;&lt;div style=&quot;border-color: rgb(0, 0, 0); text-align: justify;&quot;&gt;At AccountServiceImpl&amp;nbsp;&lt;/div&gt;&lt;div style=&quot;border-color: rgb(0, 0, 0); text-align: justify;&quot;&gt;&amp;nbsp; &amp;nbsp;Implement interface IAccountService&lt;/div&gt;&lt;div style=&quot;border-color: rgb(0, 0, 0); text-align: justify;&quot;&gt;&amp;nbsp; &amp;nbsp;Inject accountRepository that data type is AccountRepository&lt;/div&gt;&lt;div style=&quot;border-color: rgb(0, 0, 0); text-align: justify;&quot;&gt;&amp;nbsp; &amp;nbsp;Call method save(account) that has an account parameter of data type Account&amp;nbsp;&lt;/div&gt;&lt;div style=&quot;border-color: rgb(0, 0, 0); text-align: justify;&quot;&gt;&amp;nbsp; &amp;nbsp; &amp;nbsp; &amp;nbsp;Call method save(account) of accountRepository instance . This method has an account parameter of data type of Account&lt;/div&gt;&lt;div style=&quot;border-color: rgb(0, 0, 0); text-align: justify;&quot;&gt;At AccountController&lt;/div&gt;&lt;div style=&quot;border-color: rgb(0, 0, 0); text-align: justify;&quot;&gt;&amp;nbsp; &amp;nbsp; &amp;nbsp; &amp;nbsp;Inject accountService that data type is IAccountService&lt;/div&gt;&lt;div style=&quot;border-color: rgb(0, 0, 0); text-align: justify;&quot;&gt;&amp;nbsp; &amp;nbsp; &amp;nbsp; &amp;nbsp;Call method saveAccount(id) that has an account parameter of data type Account&lt;/div&gt;&lt;div style=&quot;border-color: rgb(0, 0, 0); text-align: justify;&quot;&gt;&amp;nbsp; &amp;nbsp; &amp;nbsp; &amp;nbsp;Call method save(account) of accountService instance. This method has an account parameter of data type Account&amp;nbsp;&lt;/div&gt;&lt;div style=&quot;border-color: rgb(0, 0, 0); text-align: justify;&quot;&gt;&amp;nbsp; &amp;nbsp; &amp;nbsp; &amp;nbsp; &amp;nbsp;if can not match with validate&amp;nbsp;&lt;/div&gt;&lt;div style=&quot;border-color: rgb(0, 0, 0); text-align: justify;&quot;&gt;&amp;nbsp; &amp;nbsp; &amp;nbsp; &amp;nbsp; &amp;nbsp;then go back to view&lt;/div&gt;&lt;div style=&quot;border-color: rgb(0, 0, 0); text-align: justify;&quot;&gt;&amp;nbsp; &amp;nbsp; &amp;nbsp; &amp;nbsp; else copyProperty accountDto to account then&amp;nbsp;&lt;span style=&quot;background-color: initial;&quot;&gt;call method save(account) and status code OK&lt;/span&gt;&lt;/div&gt;&lt;div style=&quot;border-color: rgb(0, 0, 0); text-align: justify;&quot;&gt;END PROGRAM&lt;/div&gt;&lt;div style=&quot;border-color: rgb(0, 0, 0); text-align: justify;&quot;&gt;&amp;nbsp; &amp;nbsp; &amp;nbsp; &amp;nbsp;&lt;/div&gt;&lt;div style=&quot;border-color: rgb(0, 0, 0); text-align: justify;&quot;&gt;&lt;br style=&quot;border-color: rgb(0, 0, 0);&quot;&gt;&lt;/div&gt;&lt;div style=&quot;border-color: rgb(0, 0, 0); text-align: justify;&quot;&gt;&amp;nbsp;&lt;/div&gt;&lt;div style=&quot;border-color: rgb(0, 0, 0); text-align: justify;&quot;&gt;&lt;br style=&quot;border-color: rgb(0, 0, 0); color: rgb(240, 240, 240); font-family: Helvetica; font-size: 12px; font-style: normal; font-variant-ligatures: normal; font-variant-caps: normal; font-weight: 400; letter-spacing: normal; orphans: 2; text-align: justify; text-indent: 0px; text-transform: none; widows: 2; word-spacing: 0px; -webkit-text-stroke-width: 0px; background-color: rgb(27, 29, 30); text-decoration-thickness: initial; text-decoration-style: initial; text-decoration-color: initial;&quot;&gt;&lt;br&gt;&lt;br&gt;&lt;/div&gt;" style="text;whiteSpace=wrap;html=1;" parent="1" vertex="1">
          <mxGeometry x="180" y="80" width="560" height="430" as="geometry" />
        </mxCell>
      </root>
    </mxGraphModel>
  </diagram>
</mxfile>
